<?xml version="1.0" encoding="UTF-8"?>
<svg width="23px" height="23px" viewBox="0 0 23 23" version="1.1" xmlns="http://www.w3.org/2000/svg" xmlns:xlink="http://www.w3.org/1999/xlink">
    <title>编组 30</title>
    <g id="页面-1" stroke="none" stroke-width="1" fill="none" fill-rule="evenodd">
        <g id="主界面_5" transform="translate(-1451.000000, -109.000000)" fill-rule="nonzero">
            <g id="编组-9" transform="translate(9.000000, 57.000000)">
                <g id="编组-30" transform="translate(1443.187879, 53.075758)">
                    <g id="wenzi" fill="#C6CBD4" stroke="#C5CBD5" stroke-width="0.860606061">
                        <path d="M19.4913407,20.6545455 L1.64770549,20.6545455 C0.73925491,20.6545455 0,19.9322341 0,19.0446049 L0,1.60994056 C0,0.722311404 0.73925491,0 1.64770549,0 L19.4913407,0 C20.3997913,0 21.1390462,0.722311404 21.1390462,1.60994056 L21.1390462,19.0446049 C21.1390462,19.9322341 20.3997913,20.6545455 19.4913407,20.6545455 Z M1.64770549,1.01988336 C1.31452018,1.01988336 1.0412041,1.28439176 1.0412041,1.61248391 L1.0412041,19.0471482 C1.0412041,19.372697 1.31191716,19.6397488 1.64770549,19.6397488 L19.4913407,19.6397488 C19.824526,19.6397488 20.0978421,19.3752404 20.0978421,19.0471482 L20.0978421,1.60994056 C20.0978421,1.28439176 19.8271291,1.01734001 19.4913407,1.01734001 L1.64770549,1.01734001 L1.64770549,1.01988336 Z" id="形状"></path>
                    </g>
                    <g id="duihua" transform="translate(3.104797, 3.872727)" fill="#C5CBD5">
                        <path d="M7.08488346,1.016009 C10.4041514,1.016009 13.1070344,2.99705665 13.1070344,5.43343943 C13.1070344,7.86982221 10.4041514,9.85086986 7.08488346,9.85086984 C6.82114366,9.85706751 6.56073433,9.90886789 6.31617361,10.0037809 C5.43160958,10.3897058 4.5989866,10.8768998 3.83646439,11.4547369 C3.769158,9.582426 3.48222022,8.9877719 2.98273593,8.65816362 C1.77122086,7.8256479 1.06273251,6.6499318 1.06273251,5.43683745 C1.06273251,2.99705665 3.76561555,1.01940702 7.08488346,1.01940702 M7.08488346,0 C3.18819755,0 0,2.43298475 0,5.43683745 C0,7.04750054 0.910407524,8.4950585 2.36280862,9.49067936 C2.71705279,9.73533705 2.78435918,11.1896911 2.7843592,12.2974467 C2.78151664,12.4569678 2.84486565,12.6110362 2.96046533,12.7257468 C3.076065,12.8404574 3.23444235,12.9064101 3.40074405,12.9090909 C3.52972829,12.9042345 3.65377198,12.8602094 3.75498824,12.783364 C4.6441411,12.1241475 5.91233525,11.2440594 6.67750267,10.9654215 C6.80636792,10.911871 6.94453585,10.8819066 7.08488346,10.8770729 C10.9815694,10.8770729 14.1697669,8.44069012 14.1697669,5.44023547 C14.1697669,2.43978082 10.9815694,0.00339803402 7.08488346,0.00339803402 L7.08488346,0 Z" id="形状" stroke="#C5CBD5" stroke-width="0.537878788"></path>
                        <path d="M9.38747058,4.05384193 L4.78229634,4.05384193 C4.48883085,4.05384193 4.25093008,4.28204396 4.25093008,4.56354544 C4.25093008,4.84504691 4.48883085,5.07324895 4.78229634,5.07324895 L9.38747058,5.07324895 C9.68093607,5.07324895 9.91883684,4.84504691 9.91883684,4.56354544 C9.91883684,4.28204396 9.68093607,4.05384193 9.38747058,4.05384193 L9.38747058,4.05384193 Z M8.67898224,6.43245831 L5.49078468,6.43245831 C5.19731919,6.43245831 4.95941841,6.66066034 4.95941841,6.94216182 C4.95941841,7.22366329 5.19731919,7.45186533 5.49078468,7.45186533 L8.67898224,7.45186533 C8.97244773,7.45186533 9.21034851,7.22366329 9.21034851,6.94216182 C9.21034851,6.66066034 8.97244773,6.43245831 8.67898224,6.43245831 L8.67898224,6.43245831 Z" id="形状"></path>
                    </g>
                </g>
            </g>
        </g>
    </g>
</svg>