<svg t="1710764546852" class="icon" viewBox="0 0 1024 1024" version="1.1" xmlns="http://www.w3.org/2000/svg" p-id="9335" width="200" height="200"><path d="M640 640V384H170.666667a42.666667 42.666667 0 1 1 0-85.333333h128V170.666667a42.666667 42.666667 0 1 1 85.333333 0v128h298.666667a42.666667 42.666667 0 0 1 42.666666 42.666666v298.666667h128a42.666667 42.666667 0 0 1 0 85.333333h-128v128a42.666667 42.666667 0 0 1-85.333333 0v-128H341.333333a42.666667 42.666667 0 0 1-42.666666-42.666666v-170.666667a42.666667 42.666667 0 0 1 85.333333 0v128h256z" p-id="9336" fill="#ffffff"></path></svg>