<?xml version="1.0" encoding="UTF-8"?>
<svg width="13px" height="13px" viewBox="0 0 13 13" version="1.1" xmlns="http://www.w3.org/2000/svg" xmlns:xlink="http://www.w3.org/1999/xlink">
    <title>zidingyi</title>
    <g id="页面-1" stroke="none" stroke-width="1" fill="none" fill-rule="evenodd">
        <g id="主界面_7" transform="translate(-615.000000, -155.000000)" fill="#C6CBD4" fill-rule="nonzero">
            <g id="zidingyi" transform="translate(615.000000, 155.000000)">
                <path d="M12.6985707,2.17964109 L11.3687514,3.50858846 L9.48907715,1.63014676 L10.8188965,0.301199413 C11.226137,-0.105774005 11.8934548,-0.0996239543 12.3084547,0.315371277 L12.6846571,0.691059622 C13.0996571,1.10605485 13.1058112,1.77266767 12.6985707,2.17964109 Z M3.09791718,8.01765068 L4.97759142,9.89582498 L2.15794629,10.8354469 L3.09791718,8.01765068 Z M10.9922814,3.88481157 L5.35379383,9.51986926 L3.47411961,7.64142756 L9.11287473,2.00636988 L10.9922814,3.88481157 Z M1.33784642,1.50099553 C0.895286827,1.50099553 0.535138574,1.86090764 0.535138574,2.30317704 L0.535138574,11.6630308 C0.535138574,12.1053002 0.895286827,12.4652123 1.33784642,12.4652123 L10.7038417,12.4652123 C11.1464013,12.4652123 11.5065496,12.1053002 11.5065496,11.6630308 L11.5065496,4.1481945 L12.0416881,3.61340683 L12.0416881,11.6630308 C12.0416881,12.4002356 11.4415302,13 10.7038417,13 L1.33784642,13 C0.600157908,13 0,12.4002356 0,11.6630308 L0,2.30317704 C0,1.56597225 0.600157908,0.966207877 1.33784642,0.966207877 L9.39275221,0.966207877 L8.85761363,1.50099553 L1.33784642,1.50099553 Z" id="形状"></path>
            </g>
        </g>
    </g>
</svg>