<?xml version="1.0" encoding="UTF-8"?>
<svg width="23px" height="23px" viewBox="0 0 23 23" version="1.1" xmlns="http://www.w3.org/2000/svg" xmlns:xlink="http://www.w3.org/1999/xlink">
    <title>编组 27</title>
    <g id="页面-1" stroke="none" stroke-width="1" fill="none" fill-rule="evenodd">
        <g id="主界面_5" transform="translate(-1336.000000, -109.000000)" fill="#C6CBD4">
            <g id="编组-9" transform="translate(9.000000, 57.000000)">
                <g id="编组-27" transform="translate(1328.296970, 53.290909)">
                    <g id="wenzi" fill-rule="nonzero" stroke="#C5CBD5" stroke-width="0.860606061">
                        <path d="M19.4913407,20.6545455 L1.64770549,20.6545455 C0.73925491,20.6545455 0,19.9322341 0,19.0446049 L0,1.60994056 C0,0.722311404 0.73925491,0 1.64770549,0 L19.4913407,0 C20.3997913,0 21.1390462,0.722311404 21.1390462,1.60994056 L21.1390462,19.0446049 C21.1390462,19.9322341 20.3997913,20.6545455 19.4913407,20.6545455 Z M1.64770549,1.01988336 C1.31452018,1.01988336 1.0412041,1.28439176 1.0412041,1.61248391 L1.0412041,19.0471482 C1.0412041,19.372697 1.31191716,19.6397488 1.64770549,19.6397488 L19.4913407,19.6397488 C19.824526,19.6397488 20.0978421,19.3752404 20.0978421,19.0471482 L20.0978421,1.60994056 C20.0978421,1.28439176 19.8271291,1.01734001 19.4913407,1.01734001 L1.64770549,1.01734001 L1.64770549,1.01988336 Z" id="形状"></path>
                    </g>
                    <text id="？" font-family="PingFangSC-Semibold, PingFang SC" font-size="16.7818182" font-weight="500" letter-spacing="-0.22375758">
                        <tspan x="6.9692793" y="18.7090909">？</tspan>
                    </text>
                </g>
            </g>
        </g>
    </g>
</svg>