<?xml version="1.0" encoding="UTF-8"?>
<svg width="19px" height="20px" viewBox="0 0 19 20" version="1.1" xmlns="http://www.w3.org/2000/svg" xmlns:xlink="http://www.w3.org/1999/xlink">
    <title>shanchu</title>
    <g id="页面-1" stroke="none" stroke-width="1" fill="none" fill-rule="evenodd">
        <g id="主界面_5" transform="translate(-984.000000, -188.000000)" fill="#C5CBD5" fill-rule="nonzero">
            <g id="编组-9" transform="translate(9.000000, 57.000000)">
                <g id="shanchu" transform="translate(975.076923, 131.687291)">
                    <path d="M9.23076923,1.18443225 C13.6675569,1.18443225 17.2768155,4.79280509 17.2768155,9.22791163 C17.2768155,13.6630182 13.6669645,17.2719832 9.23076923,17.2719832 C4.79457397,17.2719832 1.184723,13.6630182 1.184723,9.22791163 C1.184723,4.79280509 4.79457397,1.18443225 9.23076923,1.18443225 M9.23076923,18.4564155 C14.3203392,18.4564155 18.4615385,14.3162326 18.4615385,9.22791163 C18.4615385,4.1395907 14.3209316,0 9.23076923,0 C4.14119924,0 0,4.1395907 0,9.22791163 C0,14.3162326 4.14119924,18.4564155 9.23076923,18.4564155" id="形状"></path>
                    <path d="M5.02902263,13.1539041 L5.02844238,13.1539041 C4.88177634,13.3004294 4.82444143,13.5140501 4.87803516,13.7142972 C4.93162889,13.9145444 5.0880091,14.0709957 5.28826887,14.1247174 C5.48852865,14.1784392 5.70224376,14.1212698 5.8489098,13.9747444 L9.23058171,10.5927662 L12.6128339,13.9747444 C12.8393997,14.201253 13.2067355,14.201253 13.4333013,13.9747444 C13.6598671,13.7482358 13.6598671,13.3809928 13.4333013,13.1544842 L13.432721,13.1539041 L10.0516294,9.7730861 L13.432721,6.39284824 L13.4333013,6.39226814 C13.5798637,6.24574277 13.6371028,6.03217738 13.5834572,5.83201999 C13.5298117,5.6318626 13.3734315,5.47552188 13.1732235,5.42188987 C12.9730156,5.36825786 12.7593963,5.42548254 12.6128339,5.57200792 L9.23058171,8.95282588 L5.8489098,5.57200792 C5.70234741,5.42558616 5.48878337,5.36845724 5.28866519,5.42214106 C5.08854701,5.47582488 4.93227739,5.6321656 4.8787216,5.83227118 C4.82516581,6.03237675 4.88246024,6.24584639 5.02902263,6.39226814 L8.4101143,9.77250601 L5.02902263,13.153324 L5.02902263,13.1539041 Z" id="路径"></path>
                </g>
            </g>
        </g>
    </g>
</svg>