<?xml version="1.0" encoding="UTF-8"?>
<svg width="25px" height="25px" viewBox="0 0 25 25" version="1.1" xmlns="http://www.w3.org/2000/svg" xmlns:xlink="http://www.w3.org/1999/xlink">
    <title>编组 19</title>
    <g id="页面-1" stroke="none" stroke-width="1" fill="none" fill-rule="evenodd">
        <g id="主界面_5" transform="translate(-380.000000, -520.000000)">
            <g id="编组-9" transform="translate(9.000000, 57.000000)">
                <g id="编组-19" transform="translate(371.000000, 463.000000)">
                    <g id="编组-6" fill="none" stroke="#B2B2B2" stroke-width="1.38888889">
                        <g id="椭圆形-2">
                            <circle id="椭圆形" cx="12.5" cy="12.5" r="11.8055556"></circle>
                        </g>
                    </g>
                    <path d="M18.8208725,10.2012417 L15.6304798,10.2012417 L15.6304798,7.13337615 C15.6304798,6.268465 14.9311866,5.55555556 14.0724799,5.55555556 L7.10930443,5.55555556 C6.2505978,5.55555556 5.55555556,6.268465 5.55555556,7.13337615 L5.55555556,14.1468636 C5.55555556,15.0117748 6.2505978,15.7246842 7.10930443,15.7246842 L10.2954461,15.7246842 L10.2954461,18.7925498 C10.2954461,19.6574609 10.9989904,20.3703704 11.857697,20.3703704 L18.8208725,20.3703704 C19.6795791,20.3703704 20.3703704,19.6574609 20.3703704,18.7925498 L20.3703704,11.7790623 C20.3703704,10.9141511 19.6795791,10.2012417 18.8208725,10.2012417 Z M7.10930443,14.1832584 C7.09655136,14.1832584 7.0859238,14.1597088 7.0859238,14.1468636 L7.0859238,7.13337615 C7.0859238,7.12053094 7.09655136,7.09698137 7.10930443,7.09698137 L14.0724799,7.09698137 C14.085233,7.09698137 14.1001116,7.12053094 14.1001116,7.13337615 L14.1001116,10.2012417 L11.857697,10.2012417 C10.9989904,10.2012417 10.2954461,10.9141511 10.2954461,11.7790623 L10.2954461,14.1832584 L7.10930443,14.1832584 Z M14.1001116,11.7426675 L14.1001116,14.1468636 C14.1001116,14.1597088 14.085233,14.1832584 14.0724799,14.1832584 L11.8258143,14.1832584 L11.8258143,11.7790623 C11.8258143,11.7662171 11.8449439,11.7426675 11.857697,11.7426675 L14.1001116,11.7426675 Z M18.8400021,18.7925498 C18.8400021,18.805395 18.8336256,18.8289446 18.8208725,18.8289446 L11.857697,18.8289446 C11.8449439,18.8289446 11.8258143,18.805395 11.8258143,18.7925498 L11.8258143,15.7246842 L14.0724799,15.7246842 C14.9311866,15.7246842 15.6304798,15.0117748 15.6304798,14.1468636 L15.6304798,11.7426675 L18.8208725,11.7426675 C18.8336256,11.7426675 18.8400021,11.7662171 18.8400021,11.7790623 L18.8400021,18.7925498 Z" id="形状" fill="#B2B2B2" fill-rule="nonzero"></path>
                </g>
            </g>
        </g>
    </g>
</svg>