<?xml version="1.0" encoding="UTF-8"?>
<svg width="23px" height="23px" viewBox="0 0 23 23" version="1.1" xmlns="http://www.w3.org/2000/svg" xmlns:xlink="http://www.w3.org/1999/xlink">
    <title>tupian</title>
    <g id="页面-1" stroke="none" stroke-width="1" fill="none" fill-rule="evenodd">
        <g id="主界面_5" transform="translate(-1413.000000, -109.000000)" fill="#C6CBD4" fill-rule="nonzero" stroke="#C6CBD4" stroke-width="0.860606061">
            <g id="编组-9" transform="translate(9.000000, 57.000000)">
                <g id="tupian" transform="translate(1404.890909, 53.075758)">
                    <path d="M18.3708312,0 L2.76821506,0 C1.24182403,0 0,1.21336179 0,2.70476838 L0,17.9497771 C0,19.4411837 1.24182403,20.6545455 2.76821506,20.6545455 L18.3708312,20.6545455 C19.8972222,20.6545455 21.1390462,19.4411837 21.1390462,17.9497771 L21.1390462,2.70476838 C21.1390462,1.21336179 19.8972464,0 18.3708312,0 Z M2.76821506,0.983554308 L18.3708312,0.983554308 C19.3421555,0.983554308 20.1324204,1.75568288 20.1324204,2.70476841 L20.1324204,5.86177067 C16.5810589,5.98341675 13.2620142,7.38953862 10.7395781,9.85416125 C9.55746158,11.0092077 8.61386031,12.3355096 7.93117066,13.7756508 C5.95556905,12.1380417 3.09554099,12.0330504 1.00662586,13.4608424 L1.00662586,2.70476838 C1.00662586,1.75568285 1.79686651,0.983554308 2.76821506,0.983554308 Z M1.00662588,17.9497771 L1.00662588,14.7343175 C2.81768078,13.0163445 5.71119444,13.0181188 7.5198039,14.7399716 C6.94476207,16.2495707 6.6437307,17.8635697 6.6437307,19.5234639 C6.6437307,19.5748713 6.65186603,19.6244098 6.66685342,19.6709912 L2.76821506,19.6709912 C1.79686651,19.6709912 1.00662588,18.8988626 1.00662588,17.9497771 Z M18.3708312,19.6709912 L7.6272338,19.6709912 C7.64222122,19.6244098 7.65035653,19.5748714 7.65035653,19.523464 C7.65035653,16.1315679 9.00028842,12.9445681 11.4514194,10.5496163 C13.7836922,8.27079852 16.8500331,6.96708933 20.1324446,6.84591639 L20.1324446,17.9497771 C20.1324446,18.8988626 19.3421797,19.6709912 18.3708312,19.6709912 Z" id="形状"></path>
                    <path d="M5.84678323,8.04915282 C7.28625216,8.04915282 8.45735209,6.90491781 8.45735209,5.49841744 C8.45735209,4.09191707 7.28627636,2.94768207 5.84678323,2.94768207 C4.40729011,2.94768207 3.23621438,4.09191707 3.23621438,5.49841744 C3.23621438,6.90491781 4.40729011,8.04915282 5.84678323,8.04915282 Z M5.84678323,3.93126 C6.73118548,3.93126 7.45072623,4.63428544 7.45072623,5.49844109 C7.45072623,6.36259674 6.73120968,7.06562218 5.84678323,7.06562218 C4.96235679,7.06562218 4.24284024,6.36259674 4.24284024,5.49844109 C4.24284024,4.63428544 4.96235679,3.93126 5.84678323,3.93126 Z" id="形状"></path>
                </g>
            </g>
        </g>
    </g>
</svg>