<?xml version="1.0" encoding="UTF-8"?>
<svg width="190px" height="42px" viewBox="0 0 190 42" version="1.1" xmlns="http://www.w3.org/2000/svg" xmlns:xlink="http://www.w3.org/1999/xlink">
    <title>编组 32</title>
    <defs>
        <linearGradient x1="100%" y1="50.0000446%" x2="0%" y2="50%" id="linearGradient-1">
            <stop stop-color="#4E7063" offset="0%"></stop>
            <stop stop-color="#C5C5C5" offset="47.3475743%"></stop>
            <stop stop-color="#9B8267" offset="100%"></stop>
        </linearGradient>
        <linearGradient x1="100%" y1="50%" x2="0%" y2="50%" id="linearGradient-2">
            <stop stop-color="#4E7063" offset="0%"></stop>
            <stop stop-color="#E3E3E3" offset="50.7730551%"></stop>
            <stop stop-color="#9B8267" offset="100%"></stop>
        </linearGradient>
    </defs>
    <g id="页面-1" stroke="none" stroke-width="1" fill="none" fill-rule="evenodd">
        <g id="主界面_5" transform="translate(-15.000000, -6.000000)" fill-rule="nonzero">
            <g id="编组-32" transform="translate(15.000000, 6.390027)">
                <text id="CultiVerse" fill="url(#linearGradient-1)" font-family="Avenir-Heavy, Avenir" font-size="29" font-weight="600" line-spacing="40.8774194">
                    <tspan x="52.2451613" y="29">CultiVerse</tspan>
                </text>
                <g id="fanyi" transform="translate(0.000000, 4.609973)" fill="url(#linearGradient-2)">
                    <path d="M31.5795668,30.8810921 C32.0386108,30.8810921 32.0386108,30.8810921 32.4034919,30.680996 C32.768373,30.4808999 32.768373,30.4808999 32.9684691,30.1395595 C33.1685652,29.7982192 33.1685652,29.7982192 33.1685652,29.3862566 C33.1685652,28.9507534 33.1685652,28.9507534 32.9449284,28.4622835 C32.7212915,27.9738136 32.7212915,27.9738136 32.2269365,27.2322811 L32.2269365,27.2322811 L28.5663551,21.5942794 L31.9679886,16.5094847 C32.8743062,15.1558935 32.8743062,15.1558935 32.8743062,14.3672795 C32.8743062,13.825843 32.8743062,13.825843 32.4564585,13.431536 C32.0386108,13.037229 32.0386108,13.037229 31.3794707,13.037229 C31.0145896,13.037229 31.0145896,13.037229 30.7379862,13.1608177 C30.4613828,13.2844065 30.4613828,13.2844065 30.237746,13.531584 C30.0141091,13.7787616 30.0141091,13.7787616 29.7728168,14.155413 C29.5315245,14.5320645 29.5315245,14.5320645 29.1901841,15.0617306 L29.1901841,15.0617306 L26.4241499,19.2519781 L23.8346711,15.0617306 C23.1166792,13.8964651 23.1166792,13.8964651 22.7106018,13.4668471 C22.3045245,13.037229 22.3045245,13.037229 21.5747623,13.037229 C20.9391629,13.037229 20.9391629,13.037229 20.4977745,13.431536 C20.0563861,13.825843 20.0563861,13.825843 20.0563861,14.320198 C20.0563861,14.8027827 20.0563861,14.8027827 20.285908,15.3265637 C20.51543,15.8503446 20.51543,15.8503446 20.974474,16.5801068 L20.974474,16.5801068 L24.2230929,21.5942794 L20.3624154,27.2322811 C19.5031792,28.4917094 19.5031792,28.4917094 19.5031792,29.3627159 C19.5031792,30.1042485 19.5031792,30.1042485 19.9210269,30.4926703 C20.3388747,30.8810921 20.3388747,30.8810921 20.974474,30.8810921 C21.3864365,30.8810921 21.3864365,30.8810921 21.6924659,30.7516182 C21.9984952,30.6221442 21.9984952,30.6221442 22.222132,30.3985074 C22.4457688,30.1748706 22.4457688,30.1748706 22.6046686,29.9394635 C22.7635685,29.7040563 22.7635685,29.7040563 23.1402199,29.1155384 L23.1402199,29.1155384 L26.3652981,24.1955286 L29.4020505,28.9742941 C29.9787981,29.8570709 29.9787981,29.8570709 30.1906645,30.1631003 C30.402531,30.4691296 30.402531,30.4691296 30.7438714,30.6751108 C31.0852117,30.8810921 31.0852117,30.8810921 31.5795668,30.8810921 Z M5.94877905,22.8061681 L5.94877905,24.4449345 C5.94823835,26.1601079 7.26506588,27.5856355 8.96882281,27.7142734 L9.21369122,27.7224672 L12.4786033,27.7224672 C13.3800863,27.7226058 14.1108095,28.4562659 14.1108095,29.3612336 C14.1108095,30.2662013 13.3800863,30.9998615 12.4786033,31 L9.21369122,31 C5.60736884,31 2.68386693,28.0651972 2.68386693,24.4449345 L2.68386693,22.8061681 C2.68400494,21.9012004 3.41483999,21.1676526 4.31632299,21.1676526 C5.21780599,21.1676526 5.94864104,21.9012004 5.94877905,22.8061681 L5.94877905,22.8061681 Z M10.2614327,0.514575202 L16.791257,16.9022391 C16.8921417,17.1549435 16.8614096,17.4414466 16.7092456,17.6667972 C16.5570816,17.8921477 16.3033589,18.0269141 16.0321649,18.0264341 L14.2723773,18.0264341 C13.9388825,18.0264341 13.6389777,17.8226175 13.5149177,17.5118601 L11.7600274,13.1101336 L5.08328205,13.1101336 L3.3316567,17.5118601 C3.20737558,17.8231728 2.90665452,18.0270253 2.57256463,18.0264341 L0.81604191,18.0264341 C0.545136809,18.0264341 0.29191427,17.8913803 0.140136796,17.6661178 C-0.0116406779,17.4408552 -0.0421944406,17.1546741 0.0585822688,16.9022391 L6.58840655,0.514575202 C6.7124666,0.203817832 7.01237141,1.28257386e-06 7.34586616,1.28257386e-06 L9.50397311,1.28257386e-06 C9.838063,-0.000589935641 10.1387841,0.203262583 10.2630652,0.514575202 L10.2614327,0.514575202 Z M8.42328716,4.72784358 L6.38761446,9.83260087 L10.455695,9.83260087 L8.42328716,4.72784358 Z M25.5382519,1.50220509 C29.1445742,1.50220509 32.0680762,4.4370079 32.0680762,8.05727064 L32.0680762,9.696037 C32.0679381,10.6010047 31.3371031,11.3345525 30.4356201,11.3345525 C29.5341371,11.3345525 28.803302,10.6010047 28.803164,9.696037 L28.803164,8.05727064 C28.803164,7.18801489 28.4591832,6.3543616 27.8468934,5.73970496 C27.2346036,5.12504833 26.4041604,4.77973783 25.5382519,4.77973784 L22.2733398,4.77973784 C21.3718568,4.7795993 20.6411336,4.04593918 20.6411336,3.14097147 C20.6411336,2.23600375 21.3718568,1.50234363 22.2733398,1.50220509 L25.5382519,1.50220509 L25.5382519,1.50220509 Z" id="形状"></path>
                </g>
            </g>
        </g>
    </g>
</svg>