<?xml version="1.0" encoding="UTF-8"?>
<svg width="13px" height="13px" viewBox="0 0 13 13" version="1.1" xmlns="http://www.w3.org/2000/svg" xmlns:xlink="http://www.w3.org/1999/xlink">
    <title>编组 42</title>
    <g id="页面-1" stroke="none" stroke-width="1" fill="none" fill-rule="evenodd">
        <g id="主界面_7" transform="translate(-882.000000, -156.000000)">
            <g id="编组-42" transform="translate(882.000000, 156.000000)">
                <g id="编组-41">
                    <circle id="椭圆形" fill="#FFFFFF" cx="6.5" cy="6.5" r="6.5"></circle>
                    <g id="Positive" fill="#A5A5A5" fill-rule="nonzero">
                        <path d="M6.5,0 C2.91199999,0 0,2.90927419 0,6.5 C0,10.0907258 2.91199999,13 6.5,13 C10.088,13 13,10.0907258 13,6.5 C13,2.90927419 10.088,0 6.5,0 Z M10.582,10.5887097 C10.062,11.1129032 9.43799999,11.5322581 8.76199999,11.8205645 C8.05999999,12.108871 7.306,12.266129 6.52599999,12.266129 C5.74599999,12.266129 4.99199999,12.108871 4.29,11.8205645 C3.61400001,11.5322581 2.99,11.1129032 2.46999999,10.5887097 C1.94999999,10.0645161 1.534,9.43548387 1.248,8.75403226 C0.935999997,8.04637096 0.805999995,7.28629032 0.805999995,6.5 C0.805999995,5.71370968 0.961999994,4.97983871 1.248,4.24596774 C1.534,3.56451613 1.95,2.93548387 2.46999999,2.41129032 C2.98999999,1.88709678 3.614,1.46774194 4.29,1.17943549 C4.966,0.891129034 5.72,0.73387097 6.49999999,0.73387097 C7.27999999,0.73387097 8.03399999,0.891129034 8.73599999,1.17943549 C9.41199999,1.46774194 10.036,1.88709678 10.556,2.41129032 C11.076,2.93548387 11.492,3.56451613 11.778,4.24596774 C12.09,4.95362904 12.22,5.71370968 12.22,6.5 C12.22,7.28629032 12.064,8.04637096 11.778,8.75403226 C11.518,9.43548387 11.102,10.0645161 10.582,10.5887097 Z M4.056,5.79233871 C4.54999999,5.79233871 4.94,5.39919354 4.94,4.92741936 C4.94,4.45564517 4.54999999,4.0625 4.056,4.0625 C3.562,4.0625 3.172,4.45564517 3.172,4.92741936 C3.19799999,5.39919355 3.588,5.79233871 4.056,5.79233871 L4.056,5.79233871 Z M8.89199999,5.79233871 C9.38599999,5.79233871 9.77599999,5.39919354 9.77599999,4.92741936 C9.77599999,4.45564517 9.38599999,4.0625 8.89199999,4.0625 C8.398,4.0625 8.00799999,4.45564517 8.00799999,4.92741936 C8.00799999,5.39919355 8.424,5.79233871 8.89199999,5.79233871 L8.89199999,5.79233871 Z" id="形状"></path>
                    </g>
                </g>
                <line x1="3.172" y1="8.67686865" x2="9.77599999" y2="8.67686865" id="路径-44" stroke="#A5A5A5" stroke-width="0.8" stroke-linecap="round" stroke-linejoin="round"></line>
            </g>
        </g>
    </g>
</svg>