<?xml version="1.0" encoding="UTF-8"?>
<svg width="18px" height="18px" viewBox="0 0 18 18" version="1.1" xmlns="http://www.w3.org/2000/svg" xmlns:xlink="http://www.w3.org/1999/xlink">
    <title>编组 43</title>
    <g id="页面-1" stroke="none" stroke-width="1" fill="none" fill-rule="evenodd">
        <g id="主界面_7" transform="translate(-1101.000000, -188.000000)">
            <g id="编组-43" transform="translate(1101.000000, 188.000000)">
                <g id="编组-41">
                    <circle id="椭圆形" fill="#FFFFFF" cx="9" cy="9" r="9"></circle>
                    <g id="Positive" fill="#A5A5A5" fill-rule="nonzero">
                        <path d="M9,0 C4.03199999,0 0,4.0282258 0,9 C0,13.9717742 4.03199999,18 9,18 C13.968,18 18,13.9717742 18,9 C18,4.0282258 13.968,0 9,0 Z M14.652,14.6612903 C13.932,15.3870968 13.068,15.9677419 12.132,16.3669355 C11.16,16.766129 10.116,16.983871 9.03599999,16.983871 C7.95599999,16.983871 6.91199999,16.766129 5.94000001,16.3669355 C5.00400001,15.9677419 4.14,15.3870968 3.41999999,14.6612903 C2.69999998,13.9354839 2.124,13.0645161 1.72799999,12.1209677 C1.296,11.141129 1.11599999,10.0887097 1.11599999,9 C1.11599999,7.91129033 1.33199999,6.89516129 1.72799999,5.87903226 C2.124,4.93548388 2.7,4.06451612 3.41999999,3.33870968 C4.13999998,2.61290323 5.004,2.03225807 5.94000001,1.63306452 C6.876,1.23387097 7.92,1.01612903 8.99999999,1.01612903 C10.08,1.01612903 11.124,1.23387097 12.096,1.63306452 C13.032,2.03225807 13.896,2.61290323 14.616,3.33870968 C15.336,4.06451612 15.912,4.93548388 16.308,5.87903226 C16.74,6.85887097 16.92,7.91129033 16.92,9 C16.92,10.0887097 16.704,11.141129 16.308,12.1209677 C15.948,13.0645161 15.372,13.9354839 14.652,14.6612903 Z" id="形状"></path>
                    </g>
                </g>
                <g id="jieshi" transform="translate(6.100000, 4.188889)" fill="#A5A5A5" fill-rule="nonzero">
                    <path d="M5.12222222,0.844444444 C4.61111111,0.322222222 3.85555556,0 3.02222222,0 C2.08888889,0 1.31111111,0.388888889 0.755555556,1.04444444 C0.255555556,1.61111111 0,2.4 0,3.31111111 L1.15555556,3.32222222 C1.15555556,2.68888889 1.33333333,2.17777778 1.62222222,1.81111111 C1.93333333,1.37777778 2.36666667,1.15555556 3.02222222,1.15555556 C3.56666667,1.15555556 4,1.3 4.3,1.61111111 C4.58888889,1.9 4.74444444,2.3 4.74444444,2.82222222 C4.74444444,3.18888889 4.61111111,3.52222222 4.35555556,3.85555556 C4.27777778,3.95555556 4.14444444,4.06666667 3.91111111,4.32222222 C3.21111111,4.96666667 2.77777778,5.44444444 2.6,5.83333333 C2.44444444,6.15555556 2.35555556,6.48888889 2.35555556,6.97777778 L2.35555556,7.27777778 L3.47777778,7.27777778 L3.47777778,6.97777778 C3.5,6.61111111 3.54444444,6.32222222 3.71111111,6.03333333 C3.86666667,5.81111111 4.05555556,5.6 4.34444444,5.35555556 C4.92222222,4.84444444 5.25555556,4.53333333 5.38888889,4.37777778 C5.76666667,3.88888889 5.88888889,3.38888889 5.88888889,2.8 C5.88888889,2 5.61111111,1.28888889 5.12222222,0.844444444 Z M2.95555556,8.17777778 C2.71111111,8.17777778 2.51111111,8.24444444 2.34444444,8.42222222 C2.17777778,8.57777778 2.1,8.77777778 2.1,9.02222222 C2.1,9.26666667 2.16666667,9.46666667 2.34444444,9.63333333 C2.51111111,9.78888889 2.71111111,9.87777778 2.95555556,9.87777778 C3.2,9.87777778 3.4,9.78888889 3.56666667,9.63333333 C3.73333333,9.47777778 3.82222222,9.27777778 3.82222222,9.02222222 C3.82222222,8.77777778 3.73333333,8.57777778 3.57777778,8.42222222 C3.4,8.24444444 3.18888889,8.17777778 2.95555556,8.17777778 L2.95555556,8.17777778 Z" id="形状"></path>
                </g>
            </g>
        </g>
    </g>
</svg>