<?xml version="1.0" encoding="UTF-8"?>
<svg width="19px" height="19px" viewBox="0 0 19 19" version="1.1" xmlns="http://www.w3.org/2000/svg" xmlns:xlink="http://www.w3.org/1999/xlink">
    <title>编组 14</title>
    <g id="页面-1" stroke="none" stroke-width="1" fill="none" fill-rule="evenodd">
        <g id="主界面_5" transform="translate(-984.000000, -251.000000)" fill="#C5CBD5" fill-rule="nonzero">
            <g id="编组-9" transform="translate(9.000000, 57.000000)">
                <g id="编组-10" transform="translate(628.000000, 166.139266)">
                    <g id="编组-14" transform="translate(347.076923, 28.299837)">
                        <g id="shanchu">
                            <path d="M9.23076923,1.18443225 C13.6675569,1.18443225 17.2768155,4.79280509 17.2768155,9.22791163 C17.2768155,13.6630182 13.6669645,17.2719832 9.23076923,17.2719832 C4.79457397,17.2719832 1.184723,13.6630182 1.184723,9.22791163 C1.184723,4.79280509 4.79457397,1.18443225 9.23076923,1.18443225 M9.23076923,18.4564155 C14.3203392,18.4564155 18.4615385,14.3162326 18.4615385,9.22791163 C18.4615385,4.1395907 14.3209316,0 9.23076923,0 C4.14119924,0 0,4.1395907 0,9.22791163 C0,14.3162326 4.14119924,18.4564155 9.23076923,18.4564155" id="形状"></path>
                        </g>
                        <g id="编组-13" transform="translate(9.230769, 9.228208) rotate(49.000000) translate(-9.230769, -9.228208) translate(4.307692, 4.306497)">
                            <path d="M3.31111027,1.32217167 C4.58163381,1.27728264 5.80211132,1.75843693 6.60123349,2.61834242 L5.36945527,3.29308066 L9.84615385,4.9217108 L9.84615385,0.786308866 L8.68540871,1.47647771 C7.63121319,0.498738515 6.14436162,-0.0385270685 4.60262086,0.00215361537 C2.62015211,0.0680843788 0.844325047,1.08790704 0,2.64780085 L0.190497812,2.76142621 C0.923430071,1.89310402 2.07287449,1.36285235 3.31111027,1.32217167 Z" id="路径"></path>
                            <path d="M3.31111027,6.24388246 C4.58163381,6.19899343 5.80211132,6.68014773 6.60123349,7.54005322 L5.36945527,8.21479146 L9.84615385,9.84342159 L9.84615385,5.70801966 L8.68540871,6.39818851 C7.63121319,5.42044931 6.14436162,4.88318373 4.60262086,4.92386441 C2.62015211,4.98979518 0.844325047,6.00961784 0,7.56951164 L0.190497812,7.683137 C0.923430071,6.81481482 2.07287449,6.28456315 3.31111027,6.24388246 Z" id="路径" transform="translate(4.923077, 7.382566) scale(-1, -1) translate(-4.923077, -7.382566) "></path>
                        </g>
                    </g>
                </g>
            </g>
        </g>
    </g>
</svg>