<?xml version="1.0" encoding="UTF-8"?>
<svg width="18px" height="18px" viewBox="0 0 18 18" version="1.1" xmlns="http://www.w3.org/2000/svg" xmlns:xlink="http://www.w3.org/1999/xlink">
    <title>编组 20</title>
    <g id="页面-1" stroke="none" stroke-width="1" fill="none" fill-rule="evenodd">
        <g id="主界面_7" transform="translate(-869.000000, -188.000000)">
            <g id="编组-20" transform="translate(869.000000, 188.000000)">
                <g id="编组-41">
                    <circle id="椭圆形" fill="#FFFFFF" cx="9" cy="9" r="9"></circle>
                    <g id="Positive" fill="#A5A5A5" fill-rule="nonzero">
                        <path d="M9,0 C4.03199999,0 0,4.0282258 0,9 C0,13.9717742 4.03199999,18 9,18 C13.968,18 18,13.9717742 18,9 C18,4.0282258 13.968,0 9,0 Z M14.652,14.6612903 C13.932,15.3870968 13.068,15.9677419 12.132,16.3669355 C11.16,16.766129 10.116,16.983871 9.03599999,16.983871 C7.95599999,16.983871 6.91199999,16.766129 5.94000001,16.3669355 C5.00400001,15.9677419 4.14,15.3870968 3.41999999,14.6612903 C2.69999998,13.9354839 2.124,13.0645161 1.72799999,12.1209677 C1.296,11.141129 1.11599999,10.0887097 1.11599999,9 C1.11599999,7.91129033 1.33199999,6.89516129 1.72799999,5.87903226 C2.124,4.93548388 2.7,4.06451612 3.41999999,3.33870968 C4.13999998,2.61290323 5.004,2.03225807 5.94000001,1.63306452 C6.876,1.23387097 7.92,1.01612903 8.99999999,1.01612903 C10.08,1.01612903 11.124,1.23387097 12.096,1.63306452 C13.032,2.03225807 13.896,2.61290323 14.616,3.33870968 C15.336,4.06451612 15.912,4.93548388 16.308,5.87903226 C16.74,6.85887097 16.92,7.91129033 16.92,9 C16.92,10.0887097 16.704,11.141129 16.308,12.1209677 C15.948,13.0645161 15.372,13.9354839 14.652,14.6612903 Z" id="形状"></path>
                    </g>
                </g>
                <g id="queding" transform="translate(0.782609, 1.565217)" fill-rule="nonzero">
                    <path d="M4.10869565,0 L12.326087,0 C15.0652174,0 16.4347826,1.36956522 16.4347826,4.10869565 L16.4347826,12.326087 C16.4347826,15.0652174 15.0652174,16.4347826 12.326087,16.4347826 L4.10869565,16.4347826 C1.36956522,16.4347826 0,15.0652174 0,12.326087 L0,4.10869565 C0,1.36956522 1.36956522,0 4.10869565,0 Z" id="路径" fill-opacity="0" fill="#000000"></path>
                    <path d="M6.24316304,12.1679022 C6.15071739,12.1103804 4.8153913,10.8325761 2.24129348,8.33654348 C1.97803813,8.04329 1.99625812,7.59371176 2.28238043,7.32272283 C2.57333019,7.04716156 3.02363331,7.03045109 3.33420652,7.28369022 L6.66225,10.4884728 L13.1005761,4.28845109 C13.411326,4.03460511 13.8623284,4.0513252 14.1534293,4.3274837 C14.4395517,4.59847263 14.4577717,5.04805087 14.1945163,5.34130435 L7.22000543,12.0590217 C7.07825543,12.2007717 6.92007065,12.3230054 6.70847283,12.326087 C6.496875,12.3291685 6.3828587,12.2562391 6.24316304,12.1679022 Z" id="路径" fill="#A5A5A5"></path>
                </g>
            </g>
        </g>
    </g>
</svg>