<?xml version="1.0" encoding="UTF-8"?>
<svg width="18px" height="18px" viewBox="0 0 18 18" version="1.1" xmlns="http://www.w3.org/2000/svg" xmlns:xlink="http://www.w3.org/1999/xlink">
    <title>编组 20</title>
    <g id="页面-1" stroke="none" stroke-width="1" fill="none" fill-rule="evenodd">
        <g id="主界面_7" transform="translate(-668.000000, -188.000000)">
            <g id="编组-20" transform="translate(668.000000, 188.000000)">
                <g id="编组-41">
                    <circle id="椭圆形" fill="#A5A5A5" cx="9" cy="9" r="9"></circle>
                    <g id="Positive" fill-rule="nonzero">
                        <path d="M9,0 C4.03199999,0 0,4.0282258 0,9 C0,13.9717742 4.03199999,18 9,18 C13.968,18 18,13.9717742 18,9 C18,4.0282258 13.968,0 9,0 Z M14.652,14.6612903 C13.932,15.3870968 13.068,15.9677419 12.132,16.3669355 C11.16,16.766129 10.116,16.983871 9.03599999,16.983871 C7.95599999,16.983871 6.91199999,16.766129 5.94000001,16.3669355 C5.00400001,15.9677419 4.14,15.3870968 3.41999999,14.6612903 C2.69999998,13.9354839 2.124,13.0645161 1.72799999,12.1209677 C1.296,11.141129 1.11599999,10.0887097 1.11599999,9 C1.11599999,7.91129033 1.33199999,6.89516129 1.72799999,5.87903226 C2.124,4.93548388 2.7,4.06451612 3.41999999,3.33870968 C4.13999998,2.61290323 5.004,2.03225807 5.94000001,1.63306452 C6.876,1.23387097 7.92,1.01612903 8.99999999,1.01612903 C10.08,1.01612903 11.124,1.23387097 12.096,1.63306452 C13.032,2.03225807 13.896,2.61290323 14.616,3.33870968 C15.336,4.06451612 15.912,4.93548388 16.308,5.87903226 C16.74,6.85887097 16.92,7.91129033 16.92,9 C16.92,10.0887097 16.704,11.141129 16.308,12.1209677 C15.948,13.0645161 15.372,13.9354839 14.652,14.6612903 Z" id="形状" fill="#A5A5A5"></path>
                        <path d="M7.02577174,13.7331196 C6.93332609,13.6755978 5.598,12.3977935 3.02390217,9.90176087 C2.76064683,9.60850739 2.77886682,9.15892915 3.06498913,8.88794022 C3.35593889,8.61237895 3.80624201,8.59566848 4.11681522,8.84890761 L7.4448587,12.0536902 L13.8831848,5.85366848 C14.1939347,5.5998225 14.6449371,5.61654259 14.936038,5.89270109 C15.2221604,6.16369002 15.2403803,6.61326826 14.977125,6.90652174 L8.00261413,13.6242391 C7.86086413,13.7659891 7.70267935,13.8882228 7.49108152,13.8913043 C7.2794837,13.8943859 7.16546739,13.8214565 7.02577174,13.7331196 Z" id="路径" fill="#FFFFFF"></path>
                    </g>
                </g>
                <g id="queding" transform="translate(2.837829, 5.673883)"></g>
            </g>
        </g>
    </g>
</svg>