<?xml version="1.0" encoding="UTF-8"?>
<svg width="23px" height="23px" viewBox="0 0 23 23" version="1.1" xmlns="http://www.w3.org/2000/svg" xmlns:xlink="http://www.w3.org/1999/xlink">
    <title>编组 29</title>
    <g id="页面-1" stroke="none" stroke-width="1" fill="none" fill-rule="evenodd">
        <g id="主界面_5" transform="translate(-1375.000000, -109.000000)" fill="#C6CBD4" fill-rule="nonzero">
            <g id="编组-9" transform="translate(9.000000, 57.000000)">
                <g id="编组-29" transform="translate(1366.593939, 53.075758)">
                    <g id="wenzi" stroke="#C5CBD5" stroke-width="0.860606061">
                        <path d="M19.4913407,20.6545455 L1.64770549,20.6545455 C0.73925491,20.6545455 0,19.9322341 0,19.0446049 L0,1.60994056 C0,0.722311404 0.73925491,0 1.64770549,0 L19.4913407,0 C20.3997913,0 21.1390462,0.722311404 21.1390462,1.60994056 L21.1390462,19.0446049 C21.1390462,19.9322341 20.3997913,20.6545455 19.4913407,20.6545455 Z M1.64770549,1.01988336 C1.31452018,1.01988336 1.0412041,1.28439176 1.0412041,1.61248391 L1.0412041,19.0471482 C1.0412041,19.372697 1.31191716,19.6397488 1.64770549,19.6397488 L19.4913407,19.6397488 C19.824526,19.6397488 20.0978421,19.3752404 20.0978421,19.0471482 L20.0978421,1.60994056 C20.0978421,1.28439176 19.8271291,1.01734001 19.4913407,1.01734001 L1.64770549,1.01734001 L1.64770549,1.01988336 Z" id="形状"></path>
                    </g>
                    <g id="编组-28" transform="translate(4.128720, 5.163636)">
                        <path d="M9.17283612,8.42637361 L9.17283612,0.766033972 C9.17283612,0.255344657 8.79063463,0 8.40843311,0 L0.764403017,0 C0.254801006,0 0,0.383016972 0,0.766033972 L0,8.2987013 C0,8.80939061 0.382201495,9.06473527 0.764403017,9.06473527 L8.40843311,9.06473527 C8.7906346,9.19240759 9.17283612,8.80939061 9.17283612,8.42637361 Z M7.5166296,7.53266733 L1.52880603,7.53266733 L1.52880603,1.65974026 L7.5166296,1.65974026 L7.5166296,7.53266733 L7.5166296,7.53266733 Z" id="形状"></path>
                        <path d="M9.93723914,9.95844156 L5.22342058,9.95844156 L5.22342058,11.6181818 L10.8290426,11.6181818 C11.3386447,11.6181818 11.5934457,11.2351648 11.5934457,10.8521478 L11.5934457,5.10689312 L9.93723914,5.10689312 L9.93723914,9.95844156 Z" id="路径"></path>
                    </g>
                </g>
            </g>
        </g>
    </g>
</svg>