<?xml version="1.0" encoding="UTF-8"?>
<svg width="23px" height="22px" viewBox="0 0 23 22" version="1.1" xmlns="http://www.w3.org/2000/svg" xmlns:xlink="http://www.w3.org/1999/xlink">
    <title>编组 12</title>
    <g id="页面-1" stroke="none" stroke-width="1" fill="none" fill-rule="evenodd">
        <g id="主界面_5" transform="translate(-1490.000000, -110.000000)">
            <g id="编组-9" transform="translate(9.000000, 57.000000)">
                <g id="编组-12" transform="translate(1492.242424, 63.833333) rotate(90.000000) translate(-1492.242424, -63.833333) translate(1481.484848, 53.075758)">
                    <g id="椭圆形-2"></g>
                    <g id="tihuan">
                        <circle id="椭圆形" stroke="#C5CBD4" stroke-width="1.69856459" fill="none" cx="10.7575758" cy="10.7575758" r="9.90829346"></circle>
                        <path d="M14.8436853,6.38209373 C15.6432068,7.1774179 16.2428479,8.1052961 16.509355,9.16572833 C17.4421301,12.479579 15.3766996,15.7934297 12.0453602,16.7213079 C11.6455994,16.787585 11.3124655,16.5887539 11.1792119,16.2573688 C11.1125851,16.1248148 11.1125851,15.7271527 11.1125851,15.5945987 L11.1125851,12.148194 C11.1125851,11.7505319 11.4457191,11.4854238 11.8454798,11.4854238 C12.2452405,11.4854238 12.5783745,11.8168089 12.5783745,12.148194 L12.5783745,15.1306596 C14.7104317,14.1365044 15.8430871,11.8168089 15.243446,9.56339041 C15.0435657,8.70178923 14.5771781,7.97274207 13.9109103,7.37624894 C13.6444031,7.11114089 13.6444031,6.64720179 13.9109103,6.38209373 C14.1774174,6.11698567 14.5771781,6.11698567 14.8436853,6.38209373 Z M10.3796904,5.25538449 C10.4463172,5.45421553 10.4463172,5.85187762 10.4463172,5.91815463 L10.4463172,9.36455937 C10.4463172,9.76222146 10.1131833,10.0273295 9.71342254,10.0273295 C9.3136618,10.0273295 8.98052786,9.69594444 8.98052786,9.36455937 L8.98052786,6.38209373 C6.84847061,7.37624894 5.71581519,9.69594444 6.31545629,11.9493629 C6.51533666,12.8109641 6.98172418,13.5400113 7.64799208,14.1365044 C7.91449923,14.4016124 7.91449923,14.8655515 7.64799208,15.1306596 C7.38148492,15.3957677 6.91509739,15.3957677 6.64859024,15.1306596 C5.84906877,14.3353354 5.24942767,13.4074572 4.98292051,12.347025 C4.11677225,9.0331743 6.11557592,5.71932359 9.51354217,4.79144539 C9.84667612,4.72516838 10.2464369,4.99027643 10.3796904,5.25538449 Z" id="形状" fill="#C5CBD4" fill-rule="nonzero"></path>
                    </g>
                </g>
            </g>
        </g>
    </g>
</svg>