<?xml version="1.0" standalone="no"?><!DOCTYPE svg PUBLIC "-//W3C//DTD SVG 1.1//EN" "http://www.w3.org/Graphics/SVG/1.1/DTD/svg11.dtd"><svg t="1707135035395" class="icon" viewBox="0 0 1024 1024" version="1.1" xmlns="http://www.w3.org/2000/svg" p-id="30350" data-spm-anchor-id="a313x.search_index.0.i30.42203a81SxedIu" xmlns:xlink="http://www.w3.org/1999/xlink" width="200" height="200"><path d="M571.733333 317.866667c0-10.666667-8.533333-21.333333-19.2-21.333334h-81.066666c-10.666667 0-19.2 8.533333-19.2 21.333334v14.933333h121.6v-14.933333zM362.666667 727.466667h298.666666V373.333333H362.666667v354.133334z m192-251.733334c0-10.666667 8.533333-21.333333 19.2-21.333333s19.2 8.533333 19.2 21.333333v172.8c0 10.666667-8.533333 21.333333-19.2 21.333334s-19.2-8.533333-19.2-21.333334v-172.8z m-125.866667 0c0-10.666667 8.533333-21.333333 19.2-21.333333s19.2 8.533333 19.2 21.333333v172.8c0 10.666667-8.533333 21.333333-19.2 21.333334s-19.2-8.533333-19.2-21.333334v-172.8z" fill="#bfbfbf" p-id="30351"></path><path d="M512 0C228.266667 0 0 228.266667 0 512s228.266667 512 512 512 512-228.266667 512-512S795.733333 0 512 0z m215.466667 373.333333h-25.6v354.133334c0 23.466667-17.066667 40.533333-40.533334 40.533333H362.666667c-21.333333 0-40.533333-19.2-40.533334-40.533333V373.333333h-25.6c-10.666667 0-19.2-8.533333-19.2-21.333333 0-10.666667 8.533333-21.333333 19.2-21.333333h113.066667v-14.933334c0-34.133333 27.733333-61.866667 59.733333-61.866666h81.066667c34.133333 0 59.733333 27.733333 59.733333 61.866666v14.933334h113.066667c10.666667 0 19.2 8.533333 19.2 21.333333 4.266667 10.666667-4.266667 21.333333-14.933333 21.333333z" fill="#bfbfbf" p-id="30352"></path></svg>