<?xml version="1.0" standalone="no"?><!DOCTYPE svg PUBLIC "-//W3C//DTD SVG 1.1//EN" "http://www.w3.org/Graphics/SVG/1.1/DTD/svg11.dtd"><svg t="1707068112794" class="icon" viewBox="0 0 1024 1024" version="1.1" xmlns="http://www.w3.org/2000/svg" p-id="25408" xmlns:xlink="http://www.w3.org/1999/xlink" width="200" height="200"><path d="M512 0c283.022222 0 512 228.977778 512 512S795.022222 1024 512 1024 0 795.022222 0 512 228.977778 0 512 0z" fill="#E5E5E5" p-id="25409"></path><path d="M298.666667 705.422222c0-78.222222 46.933333-149.333333 120.888889-182.044444 27.022222 17.066667 59.733333 25.6 92.444444 25.6s64-9.955556 92.444444-25.6c73.955556 32.711111 120.888889 103.822222 120.888889 182.044444 1.422222 82.488889-426.666667 83.911111-426.666666 0z m314.311111-217.6c-12.8 12.8-28.444444 22.755556-45.511111 28.444445-17.066667 7.111111-36.977778 9.955556-55.466667 9.955555s-38.4-2.844444-55.466667-9.955555-32.711111-17.066667-45.511111-28.444445c-12.8-12.8-24.177778-27.022222-31.288889-44.088889-7.111111-15.644444-11.377778-34.133333-11.377777-52.622222 0-17.066667 2.844444-35.555556 11.377777-52.622222 7.111111-15.644444 18.488889-31.288889 31.288889-44.088889 14.222222-12.8 29.866667-22.755556 45.511111-28.444444 18.488889-7.111111 36.977778-9.955556 55.466667-9.955556 18.488889 0 38.4 2.844444 55.466667 9.955556s34.133333 17.066667 45.511111 28.444444c14.222222 12.8 24.177778 27.022222 31.288889 44.088889 7.111111 15.644444 11.377778 34.133333 11.377777 52.622222 0 17.066667-2.844444 35.555556-11.377777 52.622222-7.111111 15.644444-17.066667 29.866667-31.288889 44.088889z" fill="#CECECE" p-id="25410"></path></svg>